<?xml version="1.0" encoding="UTF-8"?>
<svg xmlns="http://www.w3.org/2000/svg" xmlns:xlink="http://www.w3.org/1999/xlink" width="48px" height="48px" viewBox="0 0 48 48" version="1.1">
<g id="surface1">
<path style=" stroke:none;fill-rule:nonzero;fill:rgb(96.862745%,0%,0%);fill-opacity:1;" d="M 22.5 2.75 C 25.242188 2.796875 27 4.207031 28.921875 6.0625 C 31.378906 8.628906 34.335938 12.28125 34.3125 16.03125 C 34.3125 16.339844 34.3125 16.339844 34.316406 16.65625 C 34.246094 17.292969 34.066406 17.703125 33.75 18.25 C 33.902344 18.324219 34.058594 18.402344 34.214844 18.480469 C 36.339844 19.582031 36.339844 19.582031 36.75 20.75 C 36.714844 21.472656 36.617188 21.851562 36.171875 22.421875 C 35.339844 23.070312 34.617188 23.3125 33.570312 23.390625 C 33.230469 23.417969 33.230469 23.417969 32.882812 23.445312 C 32.523438 23.472656 32.523438 23.472656 32.15625 23.5 C 30.003906 23.675781 27.882812 23.90625 25.75 24.25 C 25.929688 24.296875 26.113281 24.339844 26.296875 24.386719 C 29.980469 25.34375 29.980469 25.34375 30.75 26.5 C 30.910156 27.785156 30.910156 27.785156 30.421875 28.4375 C 29.375 29.214844 28.464844 29.441406 27.203125 29.65625 C 26.921875 29.707031 26.921875 29.707031 26.636719 29.757812 C 26.171875 29.839844 25.710938 29.921875 25.25 30 C 25.828125 30.328125 26.40625 30.660156 27 31 C 27 31.578125 27 32.15625 27 32.75 C 25.527344 33.4375 24.050781 34.015625 22.5 34.5 C 22.65625 34.546875 22.8125 34.589844 22.976562 34.636719 C 23.28125 34.730469 23.28125 34.730469 23.59375 34.828125 C 23.796875 34.890625 24 34.949219 24.210938 35.011719 C 24.75 35.25 24.75 35.25 25.25 36 C 25.28125 36.625 25.28125 36.625 25 37.25 C 24.222656 37.679688 23.394531 38 22.5 38 C 22.5 38.164062 22.5 38.328125 22.5 38.5 C 22.722656 38.546875 22.722656 38.546875 22.953125 38.59375 C 23.5 38.75 23.5 38.75 24.25 39.25 C 24.25 39.8125 24.25 39.8125 24 40.5 C 23.367188 40.917969 22.699219 41.214844 22 41.5 C 22.246094 41.746094 22.246094 41.746094 22.5 42 C 22.976562 43.105469 23.027344 43.828125 22.75 45 C 21.148438 45.332031 21.148438 45.332031 20.5 44.96875 C 20.25 44.5 20.25 44.5 20.296875 43.859375 C 20.5 43.25 20.5 43.25 21 42.75 C 20.257812 42.253906 20.257812 42.253906 19.5 41.75 C 19.578125 41.15625 19.578125 41.15625 19.75 40.5 C 20.5 40 20.5 40 21.25 40 C 21.25 39.835938 21.25 39.671875 21.25 39.5 C 21.074219 39.503906 20.902344 39.511719 20.71875 39.515625 C 20.492188 39.523438 20.265625 39.527344 20.03125 39.53125 C 19.804688 39.535156 19.578125 39.542969 19.34375 39.546875 C 18.75 39.5 18.75 39.5 18.25 39 C 18.25 38.40625 18.25 38.40625 18.5 37.75 C 19.265625 37.171875 19.265625 37.171875 20 36.75 C 19.828125 36.683594 19.65625 36.617188 19.480469 36.546875 C 19.253906 36.460938 19.027344 36.371094 18.796875 36.28125 C 18.574219 36.195312 18.351562 36.105469 18.121094 36.015625 C 17.5 35.75 17.5 35.75 16.75 35.25 C 16.589844 33.988281 16.589844 33.988281 17.011719 33.359375 C 17.738281 32.824219 18.554688 32.660156 19.421875 32.453125 C 19.597656 32.410156 19.773438 32.363281 19.953125 32.320312 C 20.386719 32.210938 20.816406 32.105469 21.25 32 C 20.660156 31.703125 20.066406 31.410156 19.46875 31.125 C 18.75 30.75 18.75 30.75 18.25 30.25 C 18.332031 29.425781 18.40625 29.09375 19 28.5 C 19.707031 28.347656 20.398438 28.21875 21.109375 28.109375 C 21.3125 28.078125 21.511719 28.042969 21.722656 28.011719 C 23.226562 27.777344 24.730469 27.597656 26.25 27.5 C 26.25 27.417969 26.25 27.335938 26.25 27.25 C 25.972656 27.183594 25.691406 27.117188 25.40625 27.046875 C 25.019531 26.949219 24.636719 26.851562 24.25 26.75 C 23.933594 26.667969 23.933594 26.667969 23.613281 26.585938 C 22.335938 26.230469 21.238281 25.910156 20.25 25 C 20.078125 24.25 20.078125 24.25 20.25 23.5 C 21.769531 21.664062 25.039062 21.597656 27.25 21.34375 C 27.753906 21.285156 28.261719 21.222656 28.765625 21.160156 C 28.984375 21.136719 29.203125 21.113281 29.429688 21.085938 C 30.039062 21.011719 30.039062 21.011719 30.75 20.75 C 30.332031 20.671875 29.917969 20.59375 29.5 20.515625 C 29.152344 20.449219 29.152344 20.449219 28.796875 20.382812 C 25.519531 19.832031 22.296875 19.914062 19 20.21875 C 18.785156 20.238281 18.570312 20.257812 18.347656 20.277344 C 17.140625 20.398438 15.980469 20.601562 14.796875 20.878906 C 13.910156 21.074219 13.011719 21.179688 12.109375 21.28125 C 11.929688 21.304688 11.75 21.324219 11.5625 21.347656 C 11.125 21.398438 10.6875 21.449219 10.25 21.5 C 10.25 21.171875 10.25 20.839844 10.25 20.5 C 11.382812 19.539062 12.636719 19.144531 14.046875 18.734375 C 14.265625 18.671875 14.484375 18.605469 14.710938 18.539062 C 20.453125 16.925781 26.65625 16.6875 32.5 18 C 31.492188 14.371094 30.304688 11.257812 27.554688 8.570312 C 27 8 27 8 27 7.5 C 26.628906 7.375 26.628906 7.375 26.25 7.25 C 26.25 7.085938 26.25 6.921875 26.25 6.75 C 26.003906 6.667969 25.753906 6.585938 25.5 6.5 C 25.5 6.335938 25.5 6.171875 25.5 6 C 25.253906 5.917969 25.003906 5.835938 24.75 5.75 C 24.75 5.585938 24.75 5.421875 24.75 5.25 C 24.503906 5.167969 24.253906 5.085938 24 5 C 24 4.835938 24 4.671875 24 4.5 C 23.800781 4.441406 23.597656 4.386719 23.390625 4.328125 C 23.179688 4.21875 22.96875 4.113281 22.75 4 C 22.546875 3.34375 22.546875 3.34375 22.5 2.75 Z M 22.5 2.75 "/>
<path style=" stroke:none;fill-rule:nonzero;fill:rgb(0%,64.705884%,93.333334%);fill-opacity:1;" d="M 13.25 7.5 C 13.976562 7.652344 14.542969 7.886719 15.1875 8.25 C 16.683594 9.007812 17.976562 9.046875 19.609375 8.859375 C 21.203125 8.683594 22.496094 9 24 9.5 C 24.246094 9.417969 24.496094 9.335938 24.75 9.25 C 25.925781 9.144531 26.9375 9.113281 28.03125 9.59375 C 28.1875 9.726562 28.339844 9.863281 28.5 10 C 28.5 10.164062 28.5 10.328125 28.5 10.5 C 28.664062 10.5 28.828125 10.5 29 10.5 C 30.21875 13.152344 30.21875 13.152344 29.75 14.5 C 29.199219 15.6875 28.511719 16.210938 27.296875 16.671875 C 25.644531 16.90625 24.484375 16.8125 23 16 C 21.976562 15.109375 21.542969 14.574219 21.4375 13.203125 C 21.511719 12.070312 21.8125 11.292969 22.25 10.25 C 22.027344 10.28125 21.804688 10.3125 21.578125 10.34375 C 21.417969 10.363281 21.261719 10.386719 21.097656 10.40625 C 20.640625 10.476562 20.191406 10.566406 19.738281 10.664062 C 17.847656 11.039062 16.636719 11.074219 15 10 C 14.847656 9.898438 14.695312 9.800781 14.539062 9.695312 C 13.871094 9.203125 13.53125 8.847656 13.28125 8.046875 C 13.269531 7.867188 13.261719 7.6875 13.25 7.5 Z M 13.25 7.5 "/>
<path style=" stroke:none;fill-rule:nonzero;fill:rgb(0%,64.705884%,92.941177%);fill-opacity:1;" d="M 21.75 42.671875 C 21.996094 42.699219 22.246094 42.722656 22.5 42.75 C 23 43.5 23 43.5 22.90625 44.296875 C 22.855469 44.527344 22.804688 44.761719 22.75 45 C 21.148438 45.332031 21.148438 45.332031 20.5 44.96875 C 20.25 44.5 20.25 44.5 20.296875 43.859375 C 20.597656 42.960938 20.800781 42.769531 21.75 42.671875 Z M 21.75 42.671875 "/>
<path style=" stroke:none;fill-rule:nonzero;fill:rgb(100%,0%,0%);fill-opacity:1;" d="M 31 31.75 C 31.246094 31.875 31.246094 31.875 31.5 32 C 31.253906 32.125 31.253906 32.125 31 32.25 C 31 32.085938 31 31.921875 31 31.75 Z M 31 31.75 "/>
<path style=" stroke:none;fill-rule:nonzero;fill:rgb(0%,0%,0%);fill-opacity:1;" d="M 17 14.5 C 17.75 14.75 17.75 14.75 17.75 14.75 Z M 17 14.5 "/>
</g>
</svg>
