<?xml version="1.0" encoding="UTF-8"?>
<svg version="1.1" xmlns="http://www.w3.org/2000/svg" width="48" height="48">
<path d="M0 0 C10.96937788 0.17982587 17.99334957 5.82189903 25.6875 13.25 C35.52313573 23.51997292 47.34405582 38.123096 47.25 53.125 C47.25773437 54.36636719 47.25773437 54.36636719 47.265625 55.6328125 C46.98148731 58.16498071 46.27118442 59.81073794 45 62 C45.61488281 62.30292969 46.22976562 62.60585937 46.86328125 62.91796875 C55.36337068 67.32391622 55.36337068 67.32391622 57 72 C56.86248234 74.88787089 56.46181429 76.40623877 54.6875 78.6875 C51.36204678 81.27396361 48.4728734 82.25018853 44.2890625 82.5625 C42.92515381 82.67295654 42.92515381 82.67295654 41.53369141 82.78564453 C40.09388916 82.89175049 40.09388916 82.89175049 38.625 83 C30.018609 83.7010307 21.52932324 84.63181504 13 86 C13.72445312 86.18175781 14.44890625 86.36351563 15.1953125 86.55078125 C29.91935484 90.37903226 29.91935484 90.37903226 33 95 C33.64285714 100.14285714 33.64285714 100.14285714 31.6875 102.75 C27.49901025 105.852585 23.85394437 106.7620104 18.8125 107.625 C17.68811523 107.82609375 17.68811523 107.82609375 16.54101562 108.03125 C14.69512072 108.36045419 12.84769691 108.68106498 11 109 C13.31 110.32 15.62 111.64 18 113 C18 115.31 18 117.62 18 120 C12.10825719 122.74390859 6.20477864 125.06375702 0 127 C0.62648437 127.18175781 1.25296875 127.36351562 1.8984375 127.55078125 C3.12433594 127.92783203 3.12433594 127.92783203 4.375 128.3125 C5.18710938 128.55613281 5.99921875 128.79976562 6.8359375 129.05078125 C9 130 9 130 11 133 C11.125 135.5 11.125 135.5 10 138 C6.89061716 139.721387 3.57673153 141 0 141 C0 141.66 0 142.32 0 143 C0.8971875 143.185625 0.8971875 143.185625 1.8125 143.375 C4 144 4 144 7 146 C7 148.25 7 148.25 6 151 C3.47332213 152.67198768 0.80063432 153.85805571 -2 155 C-1.01 155.99 -1.01 155.99 0 157 C1.91118093 161.42589268 2.11436424 164.31967018 1 169 C-5.41194487 170.33078101 -5.41194487 170.33078101 -8 168.875 C-9 167 -9 167 -8.8125 164.4375 C-8 162 -8 162 -6 160 C-8.97 158.02 -8.97 158.02 -12 156 C-11.6875 153.625 -11.6875 153.625 -11 151 C-8 149 -8 149 -5 149 C-5 148.34 -5 147.68 -5 147 C-5.69867188 147.02320313 -6.39734375 147.04640625 -7.1171875 147.0703125 C-8.02726562 147.08835938 -8.93734375 147.10640625 -9.875 147.125 C-10.77992187 147.14820313 -11.68484375 147.17140625 -12.6171875 147.1953125 C-15 147 -15 147 -17 145 C-17 142.625 -17 142.625 -16 140 C-12.9375 137.6875 -12.9375 137.6875 -10 136 C-10.68707031 135.73445312 -11.37414062 135.46890625 -12.08203125 135.1953125 C-12.98308594 134.84210938 -13.88414063 134.48890625 -14.8125 134.125 C-15.70582031 133.77695313 -16.59914062 133.42890625 -17.51953125 133.0703125 C-20 132 -20 132 -23 130 C-23.64350271 124.95922876 -23.64350271 124.95922876 -21.95703125 122.4453125 C-19.04365982 120.29372082 -15.77690745 119.6438284 -12.3125 118.8125 C-11.61060547 118.63525391 -10.90871094 118.45800781 -10.18554688 118.27539062 C-8.4593584 117.84090781 -6.7299653 117.41919208 -5 117 C-7.36588612 115.81193598 -9.73803687 114.6457423 -12.125 113.5 C-15 112 -15 112 -17 110 C-16.67028521 106.70285207 -16.3773161 105.3773161 -14 103 C-11.17774797 102.38493152 -8.41270306 101.87415502 -5.5625 101.4375 C-4.75441895 101.30819092 -3.94633789 101.17888184 -3.11376953 101.0456543 C2.90428935 100.10672177 8.91942248 99.38840693 15 99 C15 98.67 15 98.34 15 98 C13.88625 97.731875 12.7725 97.46375 11.625 97.1875 C10.08214714 96.79631567 8.54057706 96.40005308 7 96 C5.73929688 95.67322266 5.73929688 95.67322266 4.453125 95.33984375 C-0.66180472 93.92161324 -5.05155087 92.63672946 -9 89 C-9.6875 86 -9.6875 86 -9 83 C-2.91948749 75.66145042 10.16128747 75.38645215 19 74.375 C21.02114403 74.13541924 23.04199477 73.89334722 25.0625 73.6484375 C25.94035156 73.54708496 26.81820312 73.44573242 27.72265625 73.34130859 C30.1571239 73.04325035 30.1571239 73.04325035 33 72 C31.33389071 71.68454181 29.6670755 71.37281161 28 71.0625 C26.6078125 70.80146484 26.6078125 70.80146484 25.1875 70.53515625 C12.07963041 68.33444775 -0.81047426 68.65168817 -14 69.875 C-14.85940186 69.95339111 -15.71880371 70.03178223 -16.60424805 70.11254883 C-21.44298002 70.60134277 -26.07679992 71.40755669 -30.80810547 72.52294922 C-34.36355542 73.29676847 -37.95025673 73.71197874 -41.5625 74.125 C-42.28501953 74.21136719 -43.00753906 74.29773438 -43.75195312 74.38671875 C-45.50082433 74.59519346 -47.25034611 74.79819943 -49 75 C-49 73.68 -49 72.36 -49 71 C-44.47239402 67.15773212 -39.45264967 65.57211971 -33.8125 63.9375 C-32.93537354 63.68145996 -32.05824707 63.42541992 -31.15454102 63.16162109 C-8.18733264 56.69598462 16.62033168 55.74667372 40 61 C35.97000674 46.48547142 31.21646377 34.03182413 20.21875 23.28125 C18 21 18 21 18 19 C16.515 18.505 16.515 18.505 15 18 C15 17.34 15 16.68 15 16 C14.01 15.67 13.02 15.34 12 15 C12 14.34 12 13.68 12 13 C11.01 12.67 10.02 12.34 9 12 C9 11.34 9 10.68 9 10 C8.01 9.67 7.02 9.34 6 9 C6 8.34 6 7.68 6 7 C5.195625 6.773125 4.39125 6.54625 3.5625 6.3125 C2.716875 5.879375 1.87125 5.44625 1 5 C0.1875 2.375 0.1875 2.375 0 0 Z " fill="#F70000" transform="translate(90,11)"/>
<path d="M0 0 C2.90199645 0.61635323 5.17049476 1.55036069 7.75 3 C13.73650666 6.03184039 18.91224196 6.18272446 25.4375 5.4375 C31.80985245 4.73733888 36.99094704 5.99698235 43 8 C43.99 7.67 44.98 7.34 46 7 C50.7107803 6.58481258 54.75665812 6.45292957 59.125 8.375 C59.74375 8.91125 60.3625 9.4475 61 10 C61 10.66 61 11.32 61 12 C61.66 12 62.32 12 63 12 C67.88256005 22.60332784 67.88256005 22.60332784 66 28 C63.79179688 32.74763672 61.04041682 34.84673845 56.1875 36.6875 C49.57277399 37.63246086 44.93329772 37.24652139 39 34 C34.90555856 30.43961613 33.17956201 28.28941564 32.75 22.8125 C33.04709931 18.28173546 34.24514531 15.1677799 36 11 C35.113125 11.12375 34.22625 11.2475 33.3125 11.375 C32.67699219 11.45878906 32.04148438 11.54257812 31.38671875 11.62890625 C29.56681895 11.91186939 27.75788103 12.26628224 25.95703125 12.65234375 C18.38390099 14.15276463 13.54284826 14.29168719 7 10 C6.39027344 9.60039063 5.78054687 9.20078125 5.15234375 8.7890625 C2.48389459 6.8082279 1.11930149 5.38346907 0.125 2.1875 C0.08375 1.465625 0.0425 0.74375 0 0 Z " fill="#00A5EE" transform="translate(53,30)"/>
<path d="M0 0 C0.99 0.103125 1.98 0.20625 3 0.3125 C5 3.3125 5 3.3125 4.625 6.5 C4.41875 7.428125 4.2125 8.35625 4 9.3125 C-2.41194487 10.64328101 -2.41194487 10.64328101 -5 9.1875 C-6 7.3125 -6 7.3125 -5.8125 4.75 C-4.61582559 1.15997676 -3.79303534 0.39510785 0 0 Z " fill="#00A5ED" transform="translate(87,170.6875)"/>
<path d="M0 0 C0.99 0.495 0.99 0.495 2 1 C1.01 1.495 1.01 1.495 0 2 C0 1.34 0 0.68 0 0 Z " fill="#FF0000" transform="translate(124,127)"/>
<path d="M0 0 C3 1 3 1 3 1 Z " fill="#000000" transform="translate(68,58)"/>
<path d="" fill="#00FF00" transform="translate(0,0)"/>
<path d="" fill="#000000" transform="translate(0,0)"/>
<path d="" fill="#FF0000" transform="translate(0,0)"/>
</svg>
